<svg xmlns="http://www.w3.org/2000/svg" xmlns:xlink="http://www.w3.org/1999/xlink" width="500" zoomAndPan="magnify" viewBox="0 0 375 374.999991" height="500" preserveAspectRatio="xMidYMid meet" version="1.0"><defs><g/><clipPath id="ed0d3dc46b"><path d="M 191.25 112.5 L 337.5 112.5 L 337.5 262.5 L 191.25 262.5 Z M 191.25 112.5 " clip-rule="nonzero"/></clipPath></defs><g fill="#38b6ff" fill-opacity="1"><g transform="translate(96.711503, 230.206266)"><g><path d="M 43.460938 -98.652344 C 43.460938 -99.730469 42.742188 -100.566406 41.542969 -100.566406 L 27.296875 -100.566406 C 25.980469 -100.566406 24.664062 -99.488281 24.421875 -98.171875 L -0.480469 19.632812 C -0.480469 20.710938 0.121094 21.550781 1.316406 21.550781 L 42.742188 21.550781 C 44.058594 21.550781 45.375 20.472656 45.613281 19.15625 L 48.25 7.304688 L 48.25 6.824219 C 48.25 5.746094 47.53125 4.910156 46.332031 4.910156 L 21.550781 4.910156 Z M 43.460938 -98.652344 "/></g></g></g><g fill="#38b6ff" fill-opacity="1"><g transform="translate(128.916039, 230.206266)"><g><path d="M 27.296875 -100.566406 C 25.980469 -100.566406 24.664062 -99.488281 24.421875 -98.171875 C 4.070312 -2.15625 3.949219 -1.914062 3.949219 -1.796875 C 3.949219 -0.71875 4.910156 0 5.984375 0 L 20.234375 0 C 21.550781 0 22.746094 -1.078125 23.105469 -2.394531 L 43.460938 -98.652344 C 43.460938 -99.730469 42.742188 -100.566406 41.542969 -100.566406 Z M 27.296875 -100.566406 "/></g></g></g><g fill="#38b6ff" fill-opacity="1"><g transform="translate(161.120575, 230.206266)"><g><path d="M 27.296875 -100.566406 C 25.980469 -100.566406 24.664062 -99.488281 24.421875 -98.171875 C 4.070312 -2.15625 3.949219 -1.914062 3.949219 -1.796875 C 3.949219 -0.71875 4.910156 0 5.984375 0 L 18.675781 0 C 19.992188 0 21.191406 -1.078125 21.550781 -2.394531 L 31.246094 -47.890625 C 36.515625 -2.15625 36.394531 -1.914062 36.394531 -1.796875 C 36.394531 -0.71875 37.351562 0 38.429688 0 L 50.882812 0 C 52.199219 0 53.394531 -1.078125 53.753906 -2.394531 L 74.109375 -98.652344 C 74.109375 -99.730469 73.390625 -100.566406 72.191406 -100.566406 L 59.742188 -100.566406 C 58.425781 -100.566406 57.109375 -99.488281 56.867188 -98.171875 L 46.453125 -49.085938 L 41.902344 -98.652344 C 41.902344 -99.730469 41.183594 -100.566406 39.988281 -100.566406 Z M 27.296875 -100.566406 "/></g></g></g><g fill="#38b6ff" fill-opacity="1"><g transform="translate(223.973114, 230.206266)"><g><path d="M 59.859375 -59.261719 L 68.121094 -98.652344 C 68.121094 -99.730469 67.402344 -100.566406 66.207031 -100.566406 L 52.078125 -100.566406 C 50.761719 -100.445312 49.445312 -99.371094 49.207031 -98.050781 L 40.707031 -58.183594 L 34.839844 -58.183594 L 43.339844 -98.652344 C 43.339844 -99.730469 42.621094 -100.566406 41.425781 -100.566406 L 27.296875 -100.566406 C 25.980469 -100.566406 24.664062 -99.488281 24.421875 -98.171875 C 4.070312 -2.15625 3.949219 -1.914062 3.949219 -1.796875 C 3.949219 -0.71875 4.910156 0 5.984375 0 L 20.113281 0 C 21.429688 0 22.628906 -1.078125 22.988281 -2.394531 L 31.488281 -42.742188 L 37.351562 -42.742188 C 28.851562 -2.15625 28.734375 -1.914062 28.734375 -1.796875 C 28.734375 -0.71875 29.691406 0 30.769531 0 L 44.894531 0 C 46.332031 0 47.410156 -1.078125 47.769531 -2.273438 C 56.390625 -42.980469 56.507812 -43.9375 56.507812 -44.777344 C 56.507812 -50.285156 51.71875 -50.285156 49.804688 -50.285156 L 49.925781 -50.882812 C 52.078125 -50.882812 58.066406 -50.882812 59.859375 -59.261719 Z M 59.859375 -59.261719 "/></g></g></g><path stroke-linecap="butt" transform="matrix(0.75, 0, 0, 0.75, 74.498592, 116.165236)" fill="none" stroke-linejoin="miter" d="M 80.5123 13.467186 C 80.5123 12.024477 79.538341 10.894269 77.939383 10.894269 L 58.960215 10.894269 C 57.210215 10.894269 55.455006 12.336977 55.142506 14.092186 L 21.939379 171.191154 C 21.939379 172.633863 22.720629 173.722405 24.314379 173.722405 L 79.538341 173.722405 C 81.29355 173.722405 83.048758 172.279696 83.397717 170.524488 L 86.908134 154.743237 L 86.908134 154.081778 C 86.908134 152.675528 85.928967 151.54532 84.335217 151.54532 L 51.283131 151.54532 Z M 101.902926 10.894269 C 100.147718 10.894269 98.392509 12.336977 98.085218 14.092186 C 70.918549 142.118236 70.762299 142.425528 70.762299 142.623444 C 70.762299 144.024486 72.048758 144.998444 73.491466 144.998444 L 92.470634 144.998444 C 94.225842 144.998444 95.824801 143.555736 96.330009 141.805736 L 123.455011 13.467186 C 123.455011 12.024477 122.481053 10.894269 120.882094 10.894269 Z M 144.840429 10.894269 C 143.085221 10.894269 141.33522 12.336977 141.02272 14.092186 C 113.856052 142.118236 113.70501 142.425528 113.70501 142.623444 C 113.70501 144.024486 114.98626 144.998444 116.428969 144.998444 L 133.345637 144.998444 C 135.095637 144.998444 136.694595 143.555736 137.163345 141.805736 L 150.100846 81.165107 C 157.116472 142.118236 156.960221 142.425528 156.960221 142.623444 C 156.960221 144.024486 158.24668 144.998444 159.689388 144.998444 L 176.293556 144.998444 C 178.043556 144.998444 179.642515 143.555736 180.111265 141.805736 L 207.236266 13.467186 C 207.236266 12.024477 206.298766 10.894269 204.705016 10.894269 L 188.100849 10.894269 C 186.34564 10.894269 184.590432 12.336977 184.28314 14.092186 L 170.366472 79.566148 L 164.324805 13.467186 C 164.324805 12.024477 163.350847 10.894269 161.757097 10.894269 Z M 272.059187 65.961981 L 283.090438 13.467186 C 283.090438 12.024477 282.11648 10.894269 280.517521 10.894269 L 261.694603 10.894269 C 259.939395 11.050519 258.184186 12.493227 257.835228 14.248436 L 246.533144 67.404689 L 238.69981 67.404689 L 250.038353 13.467186 C 250.038353 12.024477 249.064394 10.894269 247.470644 10.894269 L 228.642518 10.894269 C 226.892518 10.894269 225.137309 12.336977 224.824809 14.092186 C 197.663349 142.118236 197.507099 142.425528 197.507099 142.623444 C 197.507099 144.024486 198.793558 144.998444 200.236266 144.998444 L 219.059184 144.998444 C 220.809184 144.998444 222.408142 143.555736 222.876892 141.805736 L 234.215435 88.024482 L 242.048769 88.024482 C 230.710226 142.118236 230.553976 142.425528 230.553976 142.623444 C 230.553976 144.024486 231.840435 144.998444 233.283143 144.998444 L 252.106061 144.998444 C 254.01752 144.998444 255.45502 143.555736 255.92377 141.961986 C 267.42377 87.711982 267.58002 86.425524 267.58002 85.295315 C 267.58002 77.96719 261.184187 77.96719 258.652937 77.96719 L 258.809187 77.149482 C 261.694603 77.149482 269.684187 77.149482 272.059187 65.961981 Z M 272.059187 65.961981 " stroke="#000000" stroke-width="5.986125" stroke-opacity="1" stroke-miterlimit="4"/><g clip-path="url(#ed0d3dc46b)"><path fill="#000000" d="M 308.449219 112.5 C 311.003906 113.757812 313.5 115.207031 316.152344 116.257812 C 320.460938 117.953125 322.613281 120.773438 322.375 125.570312 C 321.832031 136.734375 323.160156 147.6875 326.925781 158.25 C 328.382812 162.339844 330.117188 166.335938 331.976562 170.261719 C 332.804688 172.019531 334.246094 173.476562 335.398438 175.078125 C 335.925781 175.8125 336.417969 176.566406 337.324219 177.890625 C 331.425781 178.367188 326.960938 176.375 323.570312 173.027344 C 320.269531 169.777344 317.925781 165.574219 314.929688 161.464844 C 314.472656 162.675781 313.910156 163.867188 313.566406 165.117188 C 308.105469 184.640625 302.613281 204.15625 297.246094 223.699219 C 294.84375 232.449219 292.679688 241.277344 288.65625 249.488281 C 287.835938 251.164062 286.949219 252.804688 286.113281 254.464844 C 284.242188 258.199219 281.105469 259.992188 277.054688 259.878906 C 271.191406 259.714844 265.699219 258.457031 261.761719 253.519531 C 255.402344 245.550781 249.015625 237.609375 242.636719 229.65625 C 241.808594 228.628906 241.035156 227.550781 239.921875 226.082031 C 238.1875 228.464844 236.5 230.324219 235.34375 232.46875 C 231.808594 239.027344 228.453125 245.691406 225.070312 252.335938 C 223.886719 254.664062 222.835938 257.054688 221.695312 259.410156 C 220.691406 261.480469 219.242188 262.777344 216.707031 262.433594 C 214.390625 262.117188 212.046875 261.996094 209.710938 261.792969 C 206.34375 261.507812 204.410156 259.355469 202.941406 256.597656 C 199.460938 250.085938 196.773438 243.242188 195.324219 236.035156 C 193.789062 228.371094 192.777344 220.589844 191.558594 212.859375 C 191.425781 212 191.40625 211.125 191.425781 210.257812 C 191.460938 207.710938 191.902344 207.1875 194.542969 207.339844 C 196.496094 207.453125 198.460938 207.84375 200.367188 208.320312 C 202.101562 208.75 202.285156 210.304688 202.597656 211.828125 C 204.21875 219.867188 205.773438 227.914062 207.6875 235.882812 C 208.785156 240.441406 210.53125 244.84375 212.253906 250.144531 C 213.238281 248.285156 213.789062 247.21875 214.351562 246.160156 C 217.316406 240.5625 220.140625 234.871094 223.3125 229.398438 C 224.925781 226.636719 227.0625 224.136719 229.175781 221.714844 C 231.4375 219.121094 234.421875 218.292969 237.902344 218.398438 C 243.90625 218.578125 248.550781 220.894531 252.296875 225.671875 C 258.121094 233.109375 264.261719 240.304688 270.277344 247.597656 C 271.058594 248.550781 271.914062 249.4375 272.964844 250.613281 C 275.757812 245.894531 277.941406 241.164062 279.238281 236.148438 C 281.792969 226.292969 283.9375 216.328125 286.386719 206.433594 C 291.707031 184.953125 297.398438 163.582031 304.3125 142.550781 C 304.730469 141.28125 305.054688 139.996094 304.949219 138.421875 C 304.148438 139.269531 303.300781 140.082031 302.566406 140.984375 C 299.277344 145.046875 296.027344 149.136719 292.738281 153.199219 C 290.304688 156.191406 289.285156 156.527344 285.691406 154.960938 C 283.9375 154.199219 282.402344 152.949219 280.601562 151.824219 C 287.644531 137.714844 298.859375 127.046875 306.476562 113.929688 C 306.828125 113.359375 307.648438 113.070312 308.449219 112.5 Z M 308.449219 112.5 " fill-opacity="1" fill-rule="nonzero"/></g></svg>